<svg width="225" height="68" viewBox="0 0 225 68" fill="none" xmlns="http://www.w3.org/2000/svg">
<path d="M1.5 65.5C16.6674 65.5 20.7208 44.9809 33.2143 44.9809C45.7078 44.9809 47.9713 47.4237 60.5642 47.4237C88.3245 47.4237 83.7214 1.5 111.482 1.5C139.242 1.5 138.712 41.5611 166.472 41.5611C194.233 41.5611 195.74 61.7528 223.5 61.7528" stroke="#8676FF" stroke-width="3" stroke-linecap="round"/>
<path d="M1.5 66.5C16.6674 66.5 12.5 56 30 56C47.5 56 43.5 20.5 65.5 20.5C93.2603 20.5 86.7397 41.5 114.5 41.5C142.26 41.5 141.5 62.7528 160.5 62.7528C181.459 62.7528 190.427 53.8291 206 59.6257C211.054 61.5069 216.698 62.7528 223.5 62.7528" stroke="#FFBA69" stroke-width="3" stroke-linecap="round"/>
</svg>
