<svg width="114" height="41" viewBox="0 0 114 41" fill="none" xmlns="http://www.w3.org/2000/svg">
<g clip-path="url(#clip0_1568_11536)">
<rect x="1.5" y="40" width="39.5" height="3" rx="1.5" transform="rotate(-90 1.5 40)" fill="#DBDFF1" stroke="#DBDFF1"/>
<rect y="40.25" width="34" height="6" rx="3" transform="rotate(-90 0 40.25)" fill="#FFBA69"/>
<rect x="13.5" y="40" width="39.5" height="3" rx="1.5" transform="rotate(-90 13.5 40)" fill="#DBDFF1" stroke="#DBDFF1"/>
<rect x="12" y="40.25" width="27" height="6" rx="3" transform="rotate(-90 12 40.25)" fill="#FFBA69"/>
<rect x="25.5" y="40" width="39.5" height="3" rx="1.5" transform="rotate(-90 25.5 40)" fill="#DBDFF1" stroke="#DBDFF1"/>
<rect x="24" y="40.25" width="23" height="6" rx="3" transform="rotate(-90 24 40.25)" fill="#FFBA69"/>
<rect x="37.5" y="40" width="39.5" height="3" rx="1.5" transform="rotate(-90 37.5 40)" fill="#DBDFF1" stroke="#DBDFF1"/>
<rect x="36" y="40.5" width="30.1395" height="6" rx="3" transform="rotate(-90 36 40.5)" fill="#FFBA69"/>
<rect x="49.5" y="40" width="39.5" height="3" rx="1.5" transform="rotate(-90 49.5 40)" fill="#DBDFF1" stroke="#DBDFF1"/>
<rect x="48" y="40.25" width="13" height="6" rx="3" transform="rotate(-90 48 40.25)" fill="#FFBA69"/>
<rect x="61.5" y="40" width="39.5" height="3" rx="1.5" transform="rotate(-90 61.5 40)" fill="#DBDFF1" stroke="#DBDFF1"/>
<rect x="60" y="40.5" width="30.1395" height="6" rx="3" transform="rotate(-90 60 40.5)" fill="#FFBA69"/>
<rect x="73.5" y="40" width="39.5" height="3" rx="1.5" transform="rotate(-90 73.5 40)" fill="#DBDFF1" stroke="#DBDFF1"/>
<rect x="72" y="40.25" width="13" height="6" rx="3" transform="rotate(-90 72 40.25)" fill="#FFBA69"/>
<rect x="85.5" y="40" width="39.5" height="3" rx="1.5" transform="rotate(-90 85.5 40)" fill="#DBDFF1" stroke="#DBDFF1"/>
<rect x="84" y="40.25" width="13" height="6" rx="3" transform="rotate(-90 84 40.25)" fill="#FFBA69"/>
<rect x="97.5" y="40" width="39.5" height="3" rx="1.5" transform="rotate(-90 97.5 40)" fill="#DBDFF1" stroke="#DBDFF1"/>
<rect x="96" y="40.5" width="30.1395" height="6" rx="3" transform="rotate(-90 96 40.5)" fill="#FFBA69"/>
<rect x="109.5" y="40" width="39.5" height="3" rx="1.5" transform="rotate(-90 109.5 40)" fill="#DBDFF1" stroke="#DBDFF1"/>
<rect x="108" y="40.25" width="34" height="6" rx="3" transform="rotate(-90 108 40.25)" fill="#FFBA69"/>
</g>
<defs>
<clipPath id="clip0_1568_11536">
<rect width="114" height="40.5" fill="white"/>
</clipPath>
</defs>
</svg>
