<svg width="26" height="26" viewBox="0 0 26 26" fill="none" xmlns="http://www.w3.org/2000/svg">
<path d="M13 23.8334C7.01676 23.8334 2.16667 18.9833 2.16667 13.0001C2.16667 7.01683 7.01676 2.16675 13 2.16675C18.9833 2.16675 23.8333 7.01683 23.8333 13.0001C23.8333 18.9833 18.9833 23.8334 13 23.8334ZM13 21.6667C15.2985 21.6667 17.5029 20.7537 19.1283 19.1283C20.7536 17.503 21.6667 15.2986 21.6667 13.0001C21.6667 10.7015 20.7536 8.49714 19.1283 6.87182C17.5029 5.24651 15.2985 4.33341 13 4.33341C10.7015 4.33341 8.49706 5.24651 6.87175 6.87182C5.24643 8.49714 4.33334 10.7015 4.33334 13.0001C4.33334 15.2986 5.24643 17.503 6.87175 19.1283C8.49706 20.7537 10.7015 21.6667 13 21.6667ZM9.75001 8.66675H16.25L18.9583 12.4584L13 18.4167L7.04167 12.4584L9.75001 8.66675ZM10.8658 10.8334L9.86917 12.2309L13 15.3617L16.1308 12.2309L15.1342 10.8334H10.8658Z" fill="#6A6A9F"/>
</svg>
