<svg width="32" height="32" viewBox="0 0 32 32" fill="none" xmlns="http://www.w3.org/2000/svg">
<path d="M9.33317 13.3333C10.2172 13.3333 11.0651 12.9821 11.6902 12.357C12.3153 11.7319 12.6665 10.8841 12.6665 10C12.6665 9.11595 12.3153 8.2681 11.6902 7.64298C11.0651 7.01786 10.2172 6.66667 9.33317 6.66667C8.44912 6.66667 7.60127 7.01786 6.97615 7.64298C6.35103 8.2681 5.99984 9.11595 5.99984 10C5.99984 10.8841 6.35103 11.7319 6.97615 12.357C7.60127 12.9821 8.44912 13.3333 9.33317 13.3333ZM9.33317 16C8.54524 16 7.76502 15.8448 7.03707 15.5433C6.30912 15.2417 5.64768 14.7998 5.09053 14.2426C4.53338 13.6855 4.09142 13.0241 3.78989 12.2961C3.48836 11.5681 3.33317 10.7879 3.33317 10C3.33317 9.21207 3.48836 8.43185 3.78989 7.7039C4.09142 6.97595 4.53338 6.31451 5.09053 5.75736C5.64768 5.20021 6.30912 4.75825 7.03707 4.45672C7.76502 4.15519 8.54524 4 9.33317 4C10.9245 4 12.4506 4.63214 13.5758 5.75736C14.701 6.88258 15.3332 8.4087 15.3332 10C15.3332 11.5913 14.701 13.1174 13.5758 14.2426C12.4506 15.3679 10.9245 16 9.33317 16ZM23.3332 18.6667C24.0404 18.6667 24.7187 18.3857 25.2188 17.8856C25.7189 17.3855 25.9998 16.7072 25.9998 16C25.9998 15.2928 25.7189 14.6145 25.2188 14.1144C24.7187 13.6143 24.0404 13.3333 23.3332 13.3333C22.6259 13.3333 21.9477 13.6143 21.4476 14.1144C20.9475 14.6145 20.6665 15.2928 20.6665 16C20.6665 16.7072 20.9475 17.3855 21.4476 17.8856C21.9477 18.3857 22.6259 18.6667 23.3332 18.6667ZM23.3332 21.3333C21.9187 21.3333 20.5621 20.7714 19.5619 19.7712C18.5617 18.771 17.9998 17.4145 17.9998 16C17.9998 14.5855 18.5617 13.229 19.5619 12.2288C20.5621 11.2286 21.9187 10.6667 23.3332 10.6667C24.7477 10.6667 26.1042 11.2286 27.1044 12.2288C28.1046 13.229 28.6665 14.5855 28.6665 16C28.6665 17.4145 28.1046 18.771 27.1044 19.7712C26.1042 20.7714 24.7477 21.3333 23.3332 21.3333ZM26.6665 29.3333V28.6667C26.6665 27.7826 26.3153 26.9348 25.6902 26.3096C25.0651 25.6845 24.2172 25.3333 23.3332 25.3333C22.4491 25.3333 21.6013 25.6845 20.9761 26.3096C20.351 26.9348 19.9998 27.7826 19.9998 28.6667V29.3333H17.3332V28.6667C17.3332 27.8787 17.4884 27.0985 17.7899 26.3706C18.0914 25.6426 18.5334 24.9812 19.0905 24.424C19.6477 23.8669 20.3091 23.4249 21.0371 23.1234C21.765 22.8219 22.5452 22.6667 23.3332 22.6667C24.1211 22.6667 24.9013 22.8219 25.6293 23.1234C26.3572 23.4249 27.0187 23.8669 27.5758 24.424C28.133 24.9812 28.5749 25.6426 28.8764 26.3706C29.178 27.0985 29.3332 27.8787 29.3332 28.6667V29.3333H26.6665ZM13.3332 29.3333V24C13.3332 22.9391 12.9117 21.9217 12.1616 21.1716C11.4115 20.4214 10.394 20 9.33317 20C8.27231 20 7.25489 20.4214 6.50474 21.1716C5.7546 21.9217 5.33317 22.9391 5.33317 24V29.3333H2.6665V24C2.6665 22.2319 3.36888 20.5362 4.61913 19.286C5.86937 18.0357 7.56506 17.3333 9.33317 17.3333C11.1013 17.3333 12.797 18.0357 14.0472 19.286C15.2975 20.5362 15.9998 22.2319 15.9998 24V29.3333H13.3332Z" fill="white"/>
</svg>
